PathFileType  4	(X/Y/Z) C:\Users\antoi\Documents\MyRepositories\mobilecap\ResultsAnalysis
DataRate	CameraRate	NumFrames	NumMarkers	Units	OrigDataRate	OrigDataStartFrame	OrigNumFrames
100.0	100.0	7	51	mm	100.0	90	143
Frame#	Time	r_knee			r_shank_antsup			r_ankle			r_calc			r_5meta			r_toe			L_knee			L_shank_antsup			L_ankle			L_calc			L_5meta			L_toe			r_sh2			r_sh3			r_sh4			L_sh2			L_sh3			r_thigh1			r_thigh2			r_thigh3			r_thigh4			r_thigh5			L_thigh1			L_thigh2			L_thigh3			L_thigh4			r.ASIS			r.PSIS			L.ASIS			L.PSIS			C7			R_Shoulder			L_Shoulder			R_Sternum			L_Sternum			R_humerus			R_elbow_med			R_elbow_lat			R_forearm			R_wrist_radius			R_wrist_ulna			L_humerus			L_elbow_med			L_elbow_lat			L_forearm			L_wrist_radius			L_wrist_ulna			R_HJC			L_HJC			R_HJC_reg			L_HJC_reg			
		X1	Y1	Z1	X2	Y2	Z2	X3	Y3	Z3	X4	Y4	Z4	X5	Y5	Z5	X6	Y6	Z6	X7	Y7	Z7	X8	Y8	Z8	X9	Y9	Z9	X10	Y10	Z10	X11	Y11	Z11	X12	Y12	Z12	X13	Y13	Z13	X14	Y14	Z14	X15	Y15	Z15	X16	Y16	Z16	X17	Y17	Z17	X18	Y18	Z18	X19	Y19	Z19	X20	Y20	Z20	X21	Y21	Z21	X22	Y22	Z22	X23	Y23	Z23	X24	Y24	Z24	X25	Y25	Z25	X26	Y26	Z26	X27	Y27	Z27	X28	Y28	Z28	X29	Y29	Z29	X30	Y30	Z30	X31	Y31	Z31	X32	Y32	Z32	X33	Y33	Z33	X34	Y34	Z34	X35	Y35	Z35	X36	Y36	Z36	X37	Y37	Z37	X38	Y38	Z38	X39	Y39	Z39	X40	Y40	Z40	X41	Y41	Z41	X42	Y42	Z42	X43	Y43	Z43	X44	Y44	Z44	X45	Y45	Z45	X46	Y46	Z46	X47	Y47	Z47	X48	Y48	Z48	X49	Y49	Z49	X50	Y50	Z50	X51	Y51	Z51	

90	0.89000000	1053.03908	505.99044	-69.23572	1051.46111	427.08319	-88.11716	772.57385	232.56337	-102.90256	703.11400	260.79750	-142.93329	801.83410	113.57562	-75.82404	859.07317	102.73515	-127.52991	952.14104	494.85021	-355.05134	977.80191	397.29945	-352.03815	887.66372	98.45573	-311.87627	815.45899	64.56334	-266.14792	990.70537	39.48812	-348.66998	1030.26540	60.21890	-291.93905	956.38880	361.10000	-67.78898	1001.03049	490.65884	-59.62851	911.10734	422.80788	-63.73073	887.75653	414.36226	-360.67846	878.57700	291.35161	-358.15894	1013.65289	821.64861	-51.92461	1049.64994	712.79144	-50.84146	995.91835	675.02789	-29.12871	902.79187	786.47144	-44.95110	943.56163	674.77109	-52.93418	859.21859	751.71292	-382.16717	878.52724	616.77254	-358.30300	971.84557	762.43125	-414.30837	986.71424	628.17492	-383.28621	998.83970	968.39407	-98.80010	812.39569	1008.47464	-181.08535	1015.56021	957.38591	-349.57634	809.27129	1016.70788	-282.31000	812.09528	1421.06916	-253.31806	913.50276	1394.73787	-73.55901	896.61416	1378.87981	-431.40776	952.05502	1390.85742	-232.50274	956.18897	1389.76882	-274.79378	932.74437	1260.52527	-9.19859	879.15751	1047.22348	-35.84071	904.66411	1065.29807	25.72827	995.25863	955.27164	30.95815	1050.86993	830.94836	30.53366	1029.54384	820.82668	56.57185	919.25834	1261.78992	-486.73062	885.59963	1027.03335	-423.33447	901.04247	1048.02010	-497.83273	972.51684	956.62208	-507.08217	1013.99948	803.27092	-523.75658	991.66237	802.26855	-547.41219	921.65241	889.44428	-123.90774	929.26020	888.26585	-330.23356	937.01462	881.07824	-138.02741	931.91089	894.52873	-303.42854	
91	0.90000000	1071.05918	510.00205	-70.17142	1072.22776	431.28134	-89.11825	801.68597	224.77577	-103.17105	730.66804	250.22155	-142.39515	836.67649	107.29706	-76.66840	894.12974	99.69081	-128.76751	955.09017	495.09975	-354.75393	979.86531	397.35544	-351.80821	887.82477	98.91312	-311.82650	815.88352	64.58376	-266.01892	990.71334	39.44158	-348.69514	1030.35405	60.11502	-291.95511	980.07652	360.88474	-68.62586	1019.28535	492.32634	-60.12527	932.31846	420.75767	-63.77649	889.93306	415.03384	-360.24286	879.86161	292.10955	-357.83812	1026.11645	825.07792	-51.74969	1063.35574	717.22725	-51.06594	1011.26377	678.22539	-28.65501	916.59051	787.81934	-43.86794	958.67467	676.91695	-51.58740	865.96130	753.31707	-381.36538	883.24984	618.07416	-357.34273	978.52206	762.21540	-413.93824	991.60280	627.81987	-382.84650	1009.08540	970.45909	-99.73434	822.21987	1009.69371	-180.40540	1024.53500	957.90767	-350.54194	818.60236	1017.30425	-281.57939	822.25550	1422.11805	-254.36729	922.52384	1395.86774	-74.10424	907.35580	1380.22870	-431.97767	961.97670	1392.00338	-232.85384	966.27655	1390.94840	-275.11833	940.61857	1261.72840	-9.19165	886.61689	1048.63560	-36.27681	911.13292	1066.72464	25.72733	1001.05541	956.27765	32.81132	1056.08664	831.68725	33.61024	1034.31817	821.73564	59.22795	932.01243	1263.64564	-487.41602	903.08095	1027.81287	-425.10848	918.83577	1049.47179	-499.37523	992.87939	960.13144	-507.60704	1039.33298	808.13670	-523.75077	1017.13435	806.31670	-547.65904	932.19660	891.15132	-123.57773	938.25165	888.82712	-329.94410	947.18750	882.77767	-138.14372	941.27228	895.21974	-303.61217	
92	0.91000000	1088.49887	513.77868	-71.06469	1092.53595	435.26987	-90.18008	831.39927	216.43002	-103.42381	758.94246	238.73664	-142.02542	872.27795	100.83797	-77.47980	929.77571	96.48646	-129.94106	958.08625	495.35418	-354.42143	981.95439	397.41528	-351.56326	888.00799	99.42380	-311.78298	816.27945	64.75569	-265.91158	990.70560	39.39915	-348.71975	1030.42993	59.99620	-291.96540	1003.73755	360.36012	-69.56131	1037.00334	493.55503	-60.46767	953.41467	418.11487	-63.70884	892.15791	415.71014	-359.76712	881.11891	292.90763	-357.50734	1038.52377	828.27473	-51.59149	1076.80777	721.33727	-51.37068	1026.40134	681.28855	-28.22664	930.41980	789.06382	-42.70983	973.45018	679.08183	-50.04910	872.51576	755.03946	-380.46065	887.91338	619.34984	-356.27593	985.08657	761.92375	-413.52207	996.50825	627.43578	-382.35494	1019.30473	972.27738	-100.57841	831.97570	1010.87840	-179.67442	1033.44151	958.22929	-351.43186	827.94378	1017.84044	-280.78204	832.43073	1422.99251	-255.35406	931.59179	1396.80717	-74.61695	918.06365	1381.41044	-432.52733	971.91257	1393.01161	-233.19881	976.32644	1392.00088	-275.43843	948.47343	1262.76674	-9.13523	894.09915	1049.84393	-36.62054	917.65847	1067.97918	25.77110	1006.85275	957.12377	34.68190	1061.27221	832.26378	36.65191	1039.00608	822.44247	61.87018	944.76576	1265.36397	-488.06328	920.57120	1028.52752	-426.74940	936.43324	1050.91619	-500.83690	1013.00335	963.69784	-508.07717	1064.55838	813.26257	-523.54494	1042.34742	810.60110	-547.60900	942.62142	892.70130	-123.19998	947.13692	889.25437	-329.58855	957.15994	884.35175	-138.19665	950.55905	895.74534	-303.74895	
93	0.92000000	1105.33933	517.26482	-71.89294	1112.32743	439.02151	-91.25928	861.70071	207.62747	-103.67672	787.95162	226.44627	-141.86518	908.56632	94.31575	-78.23862	965.96530	93.23701	-131.01443	961.14330	495.60172	-354.06078	984.10607	397.47764	-351.30563	888.23735	99.97550	-311.72363	816.59742	65.10545	-265.81667	990.69123	39.36429	-348.74373	1030.50532	59.86450	-291.97174	1027.33357	359.60531	-70.58890	1054.15029	494.35431	-60.71464	974.36359	414.94784	-63.56501	894.42594	416.41023	-359.23763	882.39770	293.74322	-357.18131	1050.84307	831.22789	-51.49890	1090.10711	725.07622	-51.83482	1041.30375	684.20558	-27.83971	944.11097	790.22743	-41.43958	987.93235	681.16294	-48.39825	878.94963	756.85158	-379.47777	892.56009	620.59019	-355.12151	991.56048	761.58540	-413.05465	1001.42840	627.03699	-381.81980	1029.50933	973.84942	-101.31541	841.70022	1012.02261	-178.92512	1042.31305	958.32590	-352.19983	837.31349	1018.33368	-279.95653	842.61293	1423.68690	-256.27147	940.73112	1397.54492	-75.09676	928.74880	1382.40735	-433.05352	981.86868	1393.85391	-233.53463	986.35914	1392.89675	-275.75104	956.34931	1263.62199	-9.04426	901.61916	1050.83856	-36.85957	924.26878	1069.04967	25.85788	1012.69013	957.79780	36.55279	1066.46694	832.66594	39.65047	1043.65050	822.94236	64.49408	957.48875	1266.92463	-488.66881	937.99317	1029.17584	-428.27294	953.87207	1052.30709	-502.23428	1032.87576	967.28131	-508.48466	1089.54565	818.59870	-523.14230	1067.24091	815.08130	-547.25415	952.92187	894.09770	-122.76350	955.94923	889.53333	-329.15641	966.97983	885.76871	-138.16918	959.78885	896.10965	-303.80059	
94	0.93000000	1121.55074	520.40107	-72.64839	1131.52925	442.52088	-92.29794	892.57746	198.46032	-103.95432	817.72216	213.48339	-141.90845	945.47205	87.83874	-78.93085	1002.66934	90.07414	-131.95989	964.26602	495.82470	-353.67539	986.35004	397.53752	-351.03086	888.52992	100.54893	-311.62876	816.80844	65.62848	-265.72522	990.68300	39.33647	-348.76355	1030.60385	59.72923	-291.97741	1050.80808	358.68600	-71.66818	1070.70081	494.71257	-60.94879	995.11180	411.32302	-63.39788	896.73717	417.14577	-358.64768	883.74793	294.60407	-356.86143	1063.02574	833.92247	-51.51360	1103.27803	728.43353	-52.51288	1055.90495	686.95745	-27.46517	957.51413	791.33971	-40.02722	1002.16312	683.09804	-46.69748	885.35783	758.66459	-378.42845	897.25083	621.77787	-353.90591	997.97642	761.22666	-412.53407	1006.35231	626.63232	-381.24930	1039.70132	975.17202	-101.93303	851.44095	1013.09209	-178.17657	1051.19305	958.18920	-352.80306	846.72320	1018.78950	-279.12836	852.79484	1424.20262	-257.11285	949.96498	1398.07742	-75.54292	939.41879	1383.20552	-433.55067	991.84873	1394.50911	-233.85853	996.40329	1393.61318	-276.05353	964.29300	1264.28214	-8.93541	909.19218	1051.61751	-36.99430	930.98582	1069.93373	25.98664	1018.60770	958.29459	38.40944	1071.70307	832.89132	42.59787	1048.32803	823.25595	67.08642	970.14977	1268.31060	-489.22731	955.26461	1029.76955	-429.70095	971.18661	1053.60838	-503.57377	1052.50260	970.85363	-508.81671	1114.19202	824.08885	-522.54730	1091.78113	819.71019	-546.61107	963.10731	895.32886	-122.26180	964.73396	889.65544	-328.64286	976.72421	886.97677	-138.05229	968.98188	896.32374	-303.73296	
95	0.94000000	1137.09170	523.12734	-73.33696	1150.05685	445.74896	-93.24262	924.02138	189.02083	-104.27655	848.29785	200.00148	-142.10942	982.93226	81.51340	-79.54856	1039.86517	87.13685	-132.76052	967.44622	495.99962	-353.26589	988.70083	397.58538	-350.73141	888.88823	101.12500	-311.48672	816.91563	66.28722	-265.62866	990.69565	39.31130	-348.77283	1030.76141	59.60678	-291.98688	1074.08328	357.64309	-72.72288	1086.65506	494.58719	-61.24382	1015.59927	407.29143	-63.26524	899.11134	417.90734	-358.01348	885.20749	295.46921	-356.53785	1075.02029	836.33523	-51.66267	1116.27464	731.40990	-53.41260	1070.11640	689.50582	-27.06996	970.54793	792.41522	-38.48166	1016.14604	684.86166	-44.99958	891.83222	760.35265	-377.30963	902.04685	622.89109	-352.66125	1004.38510	760.86144	-411.96057	1011.27325	626.22281	-380.64847	1049.87520	976.23364	-102.42299	861.23662	1014.04001	-177.43549	1060.12862	957.82766	-353.20824	856.18259	1019.19979	-278.30959	862.97399	1424.54661	-257.87284	959.31378	1398.40679	-75.95309	950.08176	1383.79371	-434.01120	1001.85774	1394.96424	-234.16761	1006.48784	1394.13376	-276.34306	972.34998	1264.74142	-8.82352	916.83475	1052.18522	-37.03683	937.82804	1070.63722	26.15989	1024.63834	958.61237	40.23928	1076.99779	832.94434	45.48415	1053.11186	823.41234	69.62822	982.72390	1269.50716	-489.73202	972.31264	1030.32866	-431.05494	988.39194	1054.80368	-504.84892	1071.89850	974.39370	-509.05645	1138.43092	829.67537	-521.76295	1115.96038	824.43865	-545.72390	973.19363	896.37005	-121.69454	973.53971	889.61911	-328.05047	986.46333	887.92675	-137.84643	978.16276	896.40023	-303.52483	
96	0.95000000	1151.91193	525.38669	-73.97395	1167.82574	448.67564	-94.05758	956.02958	179.41605	-104.64462	879.73175	186.16577	-142.40047	1020.89309	75.45279	-80.08898	1077.52199	84.56097	-133.41035	970.66906	496.10287	-352.83182	991.15491	397.60898	-350.40148	889.29990	101.68981	-311.29472	816.94861	67.02571	-265.51974	990.74264	39.28315	-348.76431	1031.01915	59.51674	-292.00464	1097.06114	356.49216	-73.66313	1102.03728	493.91415	-61.63682	1035.77799	402.87986	-63.21725	901.58293	418.66640	-357.37084	886.79252	296.31544	-356.19586	1086.78449	838.43076	-51.95329	1129.01361	733.99061	-54.48947	1083.85546	691.78764	-26.64190	983.20202	793.43755	-36.85695	1029.82493	686.44720	-43.34908	898.43945	761.79564	-376.11950	906.99396	623.90942	-351.42332	1010.85404	760.48507	-411.33541	1016.19870	625.80229	-380.01805	1060.02328	977.01472	-102.78029	871.10502	1014.82245	-176.69937	1069.16254	957.26284	-353.39709	865.70309	1019.54308	-277.50224	873.15264	1424.72815	-258.54767	968.79426	1398.53965	-76.32305	960.74839	1384.16336	-434.42619	1011.90440	1395.21399	-234.45831	1016.63451	1394.44714	-276.61563	980.55798	1264.99935	-8.71835	924.56413	1052.55242	-37.00566	944.81084	1071.17242	26.38569	1030.80418	958.75102	42.03073	1082.35574	832.83446	48.29806	1058.04336	823.43466	72.10058	995.19656	1270.50269	-490.17668	989.09180	1030.87065	-432.34657	1005.47957	1055.89778	-506.04226	1091.07489	977.88293	-509.18330	1162.23061	835.30799	-520.78937	1139.78591	829.22325	-544.65095	983.19780	897.18926	-121.06772	982.41018	889.42852	-327.38924	996.23499	888.59085	-137.55976	987.36054	896.34749	-303.17266	
